<?xml version="1.0" standalone="no"?>
<!DOCTYPE svg PUBLIC "-//W3C//DTD SVG 20010904//EN"
 "http://www.w3.org/TR/2001/REC-SVG-20010904/DTD/svg10.dtd">
<svg version="1.0" xmlns="http://www.w3.org/2000/svg"
 width="1200.000000pt" height="1200.000000pt" viewBox="0 0 1200.000000 1200.000000"
 preserveAspectRatio="xMidYMid meet">

<g transform="translate(0.000000,1200.000000) scale(0.100000,-0.100000)"
fill="#000000" stroke="none">
<path d="M8540 9274 c-344 -33 -571 -114 -713 -255 -77 -77 -101 -132 -100
-231 1 -219 156 -317 503 -318 218 0 463 35 850 121 124 28 261 53 305 56 70
5 83 3 105 -15 l25 -20 3 -232 4 -231 -34 18 c-26 14 -55 18 -143 18 -106 0
-113 -2 -188 -37 -150 -71 -247 -197 -283 -368 -19 -89 -14 -273 10 -359 56
-203 207 -335 380 -333 115 1 204 44 244 117 10 17 11 15 12 -18 0 -29 7 -46
29 -68 l30 -29 172 2 c127 2 173 6 177 16 2 8 -9 12 -37 12 -76 0 -71 -59 -71
882 0 573 -3 838 -10 838 -6 0 -28 -9 -49 -20 -60 -30 -291 -105 -446 -144
-440 -110 -884 -167 -1058 -137 -189 33 -290 118 -304 256 -11 107 73 224 214
298 141 73 317 107 560 107 264 0 507 -42 753 -130 171 -61 281 -120 615 -328
254 -159 393 -232 525 -276 268 -89 549 -51 656 89 24 31 29 50 32 107 3 38 0
74 -5 79 -6 6 -29 -3 -61 -25 -149 -100 -457 -84 -773 40 -52 20 -182 79 -289
131 -272 132 -345 164 -529 227 -302 104 -663 167 -941 164 -74 -1 -151 -3
-170 -4z m920 -1127 c14 -7 33 -28 42 -47 16 -31 18 -73 18 -405 0 -238 -4
-384 -11 -410 -16 -57 -68 -105 -113 -105 -21 0 -50 7 -65 15 -40 20 -106 98
-135 159 -103 218 -80 578 47 722 65 74 154 103 217 71z"/>
<path d="M3684 9021 c-28 -17 -63 -75 -52 -87 3 -2 17 0 32 6 75 28 155 -3
190 -73 22 -47 24 -166 3 -242 -17 -61 -110 -411 -178 -670 -28 -104 -54 -193
-57 -197 -10 -10 -265 853 -260 882 3 21 9 25 45 28 32 2 41 7 36 18 -8 22
-513 21 -513 -1 0 -11 11 -15 40 -15 49 0 75 -23 90 -82 7 -24 20 -74 31 -112
l19 -69 -93 -343 c-50 -189 -95 -340 -99 -336 -3 4 -70 211 -147 461 -109 349
-139 457 -130 467 6 8 27 14 46 14 23 0 33 4 31 13 -4 9 -66 14 -244 18 -131
4 -262 9 -289 13 -71 10 -185 -15 -246 -54 -114 -74 -153 -216 -83 -308 40
-51 80 -72 144 -72 86 0 143 47 164 133 11 46 -12 106 -60 157 -51 54 -54 71
-19 98 78 62 218 16 258 -86 8 -20 110 -356 228 -746 149 -496 215 -703 221
-690 10 24 290 1005 314 1102 10 39 21 72 24 72 3 0 81 -262 174 -583 93 -320
172 -588 176 -596 6 -11 9 -10 13 5 25 85 411 1498 423 1551 22 94 16 233 -13
271 -52 71 -151 95 -219 53z"/>
<path d="M5800 8329 c-63 -53 -222 -119 -342 -144 -37 -7 -36 -25 1 -25 16 0
39 -9 52 -19 l24 -19 3 -409 c2 -261 -1 -419 -7 -436 -9 -23 -16 -27 -51 -27
-29 0 -40 -4 -40 -15 0 -13 34 -15 250 -15 216 0 250 2 250 15 0 11 -11 15
-40 15 -34 0 -42 4 -50 26 -6 15 -10 188 -10 420 l0 395 47 50 c106 114 203
119 232 12 7 -23 11 -178 11 -403 1 -432 12 -573 54 -671 6 -13 -18 -21 -146
-47 -251 -53 -368 -65 -573 -59 -192 6 -258 17 -395 66 -46 16 -86 28 -89 26
-2 -3 2 -26 9 -52 36 -132 112 -233 213 -283 184 -89 456 -47 947 149 112 44
127 48 145 35 107 -76 194 -104 325 -104 146 0 244 45 270 125 22 65 -28 144
-112 180 -54 22 -173 30 -252 16 -38 -7 -71 -9 -75 -6 -3 4 -9 226 -12 493 -6
537 -7 542 -72 638 -43 64 -93 89 -178 89 -90 0 -178 -45 -276 -140 l-73 -71
0 108 c0 59 -3 108 -7 108 -5 -1 -19 -10 -33 -21z m984 -1328 c46 -43 29 -113
-34 -146 -41 -21 -133 -19 -178 4 -39 21 -76 69 -87 112 -6 24 -3 28 27 37 60
19 72 21 160 19 76 -2 89 -5 112 -26z"/>
<path d="M7058 8270 c-220 -37 -397 -208 -444 -429 -28 -134 -10 -299 46 -416
40 -85 132 -183 209 -224 116 -62 257 -84 387 -60 192 35 356 198 409 408 22
83 14 98 -18 34 -41 -80 -126 -165 -204 -203 -57 -29 -82 -35 -155 -38 -76 -4
-92 -1 -142 21 -74 34 -119 71 -164 135 -32 48 -35 55 -21 65 9 7 145 84 303
172 l288 160 -6 49 c-17 152 -162 294 -331 325 -65 12 -88 12 -157 1z m48 -66
c65 -31 121 -139 150 -292 25 -133 36 -117 -150 -226 -91 -53 -167 -96 -169
-96 -9 0 -36 93 -47 160 -32 204 20 408 115 451 49 23 58 23 101 3z"/>
<path d="M8154 8266 c-97 -22 -181 -71 -259 -150 -121 -122 -172 -263 -162
-446 15 -255 141 -431 359 -504 148 -50 284 -43 416 19 136 64 247 205 288
366 21 81 13 95 -19 33 -95 -187 -318 -289 -489 -224 -96 36 -231 180 -195
207 6 6 143 83 303 172 l291 161 -8 48 c-23 124 -111 233 -235 292 -78 38
-194 48 -290 26z m97 -69 c69 -46 132 -197 145 -349 l6 -63 -168 -98 c-124
-72 -170 -94 -175 -85 -17 26 -41 156 -46 243 -9 156 36 306 106 352 43 29 89
29 132 0z"/>
<path d="M4292 8250 c-174 -47 -296 -158 -367 -335 -24 -58 -29 -89 -33 -183
-6 -140 8 -213 58 -318 97 -202 313 -313 553 -284 156 19 278 92 359 217 57
87 88 161 94 226 l6 52 -29 -51 c-69 -119 -147 -187 -260 -225 -160 -53 -332
14 -420 163 l-22 37 122 69 c67 38 205 115 306 172 l183 103 -6 41 c-10 62
-61 159 -112 211 -27 28 -73 60 -119 82 -97 46 -201 54 -313 23z m120 -65 c62
-42 118 -182 142 -356 5 -32 3 -49 -6 -56 -21 -17 -305 -182 -319 -185 -23 -5
-51 110 -56 238 -11 239 54 383 172 384 17 0 47 -11 67 -25z"/>
<path d="M3028 6725 c-353 -48 -659 -156 -999 -351 -186 -106 -348 -184 -454
-218 -241 -78 -440 -72 -559 19 -44 34 -50 24 -44 -70 5 -81 40 -136 116 -181
134 -81 385 -68 577 29 84 42 197 115 390 251 255 180 327 226 450 286 193 95
407 151 650 171 119 10 159 9 265 -4 128 -17 261 -54 268 -75 2 -8 -10 -12
-35 -12 -52 0 -131 -22 -208 -59 -267 -125 -437 -424 -436 -771 0 -253 82
-465 237 -609 275 -258 732 -199 880 112 40 85 60 184 50 251 -7 44 -26 65
-26 29 0 -31 -47 -119 -85 -161 -117 -130 -303 -167 -461 -93 -133 62 -237
211 -286 406 -31 129 -31 334 0 460 45 179 144 331 247 380 61 29 143 32 192
7 73 -38 115 -102 134 -205 15 -80 3 -153 -40 -237 l-30 -58 37 -7 c80 -13
188 29 245 95 94 110 66 263 -74 402 -112 111 -304 189 -534 217 -118 14 -345
12 -467 -4z"/>
<path d="M6020 6506 c-128 -28 -230 -106 -285 -219 -42 -87 -55 -163 -55 -324
l0 -123 -40 0 c-29 0 -40 -4 -40 -15 0 -11 11 -15 38 -15 l39 0 6 -510 c4
-311 3 -519 -3 -534 -7 -20 -17 -25 -51 -28 -23 -2 -44 -9 -47 -15 -3 -10 52
-13 252 -13 221 0 256 2 256 15 0 11 -11 15 -40 15 -29 0 -42 5 -50 19 -6 13
-10 199 -10 535 l0 516 65 0 c51 0 65 3 65 15 0 12 -14 15 -66 15 l-66 0 4
238 c4 192 8 246 22 283 24 66 57 94 111 94 88 0 145 -93 145 -234 0 -59 -6
-88 -24 -128 l-24 -52 30 -10 c82 -29 184 -1 234 64 42 55 46 145 10 219 -76
156 -275 236 -476 192z"/>
<path d="M6923 6505 c-162 -36 -275 -147 -318 -312 -10 -38 -15 -106 -15 -205
l0 -148 -45 0 c-33 0 -45 -4 -45 -15 0 -11 12 -15 45 -15 l45 0 0 -523 c0
-393 -3 -526 -12 -535 -7 -7 -29 -12 -50 -12 -27 0 -38 -4 -38 -15 0 -13 35
-15 255 -15 220 0 255 2 255 15 0 11 -11 15 -39 15 -21 0 -44 6 -51 15 -8 10
-13 151 -17 534 l-6 520 68 3 c44 2 70 8 73 16 3 9 -15 12 -68 12 l-73 0 6
228 c5 243 16 306 60 358 16 19 36 27 68 31 41 5 50 2 81 -26 44 -39 68 -96
75 -181 5 -61 -5 -110 -41 -192 -6 -13 0 -19 31 -27 115 -32 222 23 254 130
17 54 -1 129 -47 196 -39 57 -81 89 -167 129 -73 33 -191 41 -284 19z"/>
<path d="M4800 6150 c-69 -12 -157 -46 -210 -80 -240 -154 -321 -511 -179
-791 44 -88 163 -206 249 -247 36 -17 103 -38 149 -47 292 -59 552 104 628
395 22 86 22 235 -1 320 -53 200 -201 371 -372 429 -69 23 -199 33 -264 21z
m108 -54 c168 -88 288 -565 213 -849 -39 -147 -95 -222 -166 -219 -49 2 -92
30 -137 90 -73 95 -118 220 -143 392 -37 262 0 478 96 565 43 39 89 46 137 21z"/>
<path d="M7670 6135 c-99 -28 -162 -65 -241 -144 -146 -146 -196 -326 -154
-548 40 -210 182 -364 385 -418 72 -19 221 -19 295 0 136 36 254 135 323 273
38 75 70 187 59 199 -3 3 -15 -13 -26 -34 -82 -161 -255 -266 -412 -249 -78 8
-167 54 -221 115 -38 44 -73 100 -66 106 2 1 136 77 298 168 l295 166 -1 48
c-3 106 -96 228 -221 290 -68 33 -84 37 -167 40 -59 2 -110 -3 -146 -12z m125
-77 c65 -56 120 -197 131 -333 l6 -70 -169 -97 c-113 -65 -170 -93 -175 -85
-25 45 -42 152 -42 267 -1 159 25 253 84 312 33 33 44 38 83 38 38 0 53 -6 82
-32z"/>
<path d="M8770 6127 c-89 -30 -147 -66 -213 -132 -64 -65 -105 -131 -138 -225
-19 -54 -23 -86 -23 -190 0 -111 3 -134 28 -205 34 -99 71 -158 140 -223 201
-190 548 -189 739 4 85 85 148 207 162 315 l6 44 -33 -60 c-70 -125 -186 -211
-322 -236 -131 -24 -258 35 -343 158 -31 45 -35 56 -23 63 8 5 146 83 305 173
l290 164 -4 34 c-14 137 -140 281 -285 324 -76 23 -208 19 -286 -8z m138 -47
c60 -37 115 -150 142 -295 23 -121 26 -117 -154 -222 -87 -51 -162 -93 -167
-93 -13 0 -38 97 -51 197 -24 198 29 376 127 419 42 18 65 17 103 -6z"/>
<path d="M3282 3884 c-29 -20 -30 -81 -2 -117 13 -17 20 -40 20 -71 l0 -46
-145 0 c-111 0 -153 -4 -175 -15 l-30 -16 0 -94 0 -95 170 0 c163 0 170 -1
170 -20 0 -19 -7 -20 -235 -20 -129 0 -235 -3 -235 -7 0 -5 29 -30 65 -56 l65
-48 0 -248 c0 -179 -3 -250 -12 -259 -16 -16 -50 -15 -74 3 -10 8 -36 15 -57
15 -34 0 -45 -7 -97 -62 l-59 -61 -30 32 c-39 42 -46 78 -25 130 14 34 21 41
44 41 19 0 36 10 53 30 14 16 38 32 53 36 40 9 62 31 70 68 3 17 13 40 20 51
25 36 18 62 -21 75 -28 9 -37 19 -42 42 -3 17 -15 34 -29 40 -33 15 -107 1
-132 -25 -26 -28 -52 -98 -52 -141 0 -17 -7 -42 -16 -54 -9 -14 -14 -34 -11
-49 3 -16 -4 -43 -19 -71 -52 -98 -22 -215 70 -279 44 -30 55 -33 121 -33 84
0 120 11 193 56 l52 34 0 -363 c1 -295 3 -367 15 -387 17 -30 19 -60 5 -60
-20 0 -70 -44 -91 -78 -26 -46 -49 -134 -49 -194 0 -30 -5 -50 -14 -55 -8 -4
-16 -19 -18 -32 -5 -40 -32 -49 -75 -26 -23 13 -56 20 -91 20 -47 0 -57 -4
-78 -29 -23 -25 -25 -35 -22 -107 l3 -79 39 -15 c60 -24 303 -25 374 -1 52 18
54 19 48 50 -3 17 -11 69 -17 116 -9 66 -17 89 -34 105 -21 18 -22 25 -15 78
5 31 18 77 29 101 18 36 32 49 84 74 34 17 91 35 126 41 35 6 66 12 68 14 2 3
-39 6 -91 9 -103 4 -138 19 -163 69 -10 18 -13 184 -13 701 l0 678 -27 24
c-16 13 -39 34 -53 45 l-25 20 218 1 217 0 0 -111 c0 -109 0 -110 23 -107 21
3 22 8 25 111 l3 107 180 0 180 0 -3 -712 c-3 -692 -4 -714 -23 -747 -31 -53
-64 -72 -136 -78 l-64 -6 57 -13 c106 -25 159 -72 184 -168 20 -75 18 -116 -5
-116 -22 0 -31 -19 -31 -63 0 -18 -7 -57 -15 -87 -20 -74 -19 -107 3 -114 155
-45 478 -26 446 26 -4 6 -1 28 6 49 19 55 1 111 -44 138 -43 27 -70 26 -130
-4 -53 -27 -86 -21 -86 15 0 11 -9 27 -19 37 -13 13 -21 39 -26 88 -4 39 -11
87 -16 108 -11 41 -69 112 -100 122 -24 8 -24 33 -1 65 15 23 17 57 17 360 0
184 4 341 8 348 18 27 135 4 176 -35 29 -28 49 -75 61 -145 13 -71 4 -108 -25
-108 -8 0 -15 -4 -15 -9 0 -4 -18 -29 -40 -54 -42 -48 -51 -85 -25 -107 8 -7
15 -25 15 -41 0 -23 6 -32 28 -41 15 -6 42 -17 60 -25 27 -12 40 -12 80 -1 59
17 72 45 53 118 -7 29 -10 66 -6 86 4 23 2 41 -7 51 -9 11 -13 49 -14 117 0
108 -16 156 -66 208 -46 47 -144 85 -233 90 -39 3 -40 4 -47 48 -3 25 -7 174
-7 332 l-1 288 -182 2 c-155 3 -183 5 -183 18 0 13 28 16 170 20 l170 5 8 50
c5 28 6 69 2 92 -10 68 -25 73 -202 73 l-153 0 0 46 c0 37 5 51 30 76 34 33
36 47 15 87 -21 41 -73 53 -113 25z m-534 -691 c2 -9 -9 -13 -37 -13 -22 0
-51 -4 -65 -10 -37 -14 -32 5 7 24 36 18 88 17 95 -1z m4 -40 c29 -26 23 -46
-12 -38 -18 4 -30 2 -30 -3 0 -6 15 -14 33 -17 47 -11 57 -23 57 -71 0 -33 -5
-46 -22 -58 -33 -23 -38 -20 -39 27 l-1 42 -14 -44 c-20 -65 -30 -71 -59 -35
-16 21 -37 34 -61 39 l-36 6 6 52 c8 61 33 91 85 105 54 15 73 14 93 -5z m73
-61 c0 -31 -19 -28 -23 4 -3 18 0 25 10 22 7 -3 13 -14 13 -26z m-181 -139
c29 -29 32 -66 5 -71 -11 -2 -18 7 -22 28 -6 27 -10 30 -42 30 -28 0 -35 4
-35 20 0 32 60 27 94 -7z m1328 -663 c26 -24 76 -27 84 -5 9 22 24 18 24 -5 0
-33 -38 -44 -96 -27 -37 10 -50 19 -52 35 -4 27 12 28 40 2z m-15 -45 c19 -8
53 -15 74 -15 33 0 41 -4 49 -26 15 -38 12 -110 -4 -123 -21 -17 -95 -15 -140
4 l-38 16 4 51 c4 34 2 45 -4 34 -11 -19 -28 -12 -28 12 0 21 27 62 41 62 5 0
26 -7 46 -15z m-213 -750 c5 -20 12 -25 40 -25 23 0 38 7 49 23 l16 22 0 -23
c1 -13 -4 -33 -10 -44 -10 -18 -9 -20 6 -14 13 4 16 2 11 -9 -8 -21 11 -19 23
2 19 35 22 4 6 -54 -10 -32 -19 -64 -21 -70 -7 -25 -184 -4 -184 21 0 6 7 36
15 66 8 30 15 69 15 86 0 49 23 62 34 19z m-794 -21 c0 -14 7 -57 16 -96 11
-49 13 -73 5 -81 -5 -5 -45 -12 -88 -15 l-79 -4 -18 58 c-32 108 -32 100 -5
82 32 -21 50 -4 35 34 -5 15 -6 31 -2 35 5 4 11 2 13 -5 13 -35 93 -33 93 3 0
8 7 15 15 15 9 0 15 -10 15 -26z m1147 -29 c15 -17 23 -39 23 -64 0 -61 -13
-69 -128 -82 -57 -6 -106 -9 -108 -6 -11 10 26 121 48 144 32 34 56 43 103 38
27 -2 47 -12 62 -30z m-1390 -1 c28 -17 58 -75 67 -128 l7 -39 -101 6 c-56 4
-108 11 -116 18 -21 17 -28 75 -13 110 22 55 97 70 156 33z"/>
<path d="M8448 3731 c-53 -3 -98 -8 -101 -11 -17 -19 -16 -51 2 -69 41 -41 19
-146 -44 -216 -133 -147 -165 -270 -165 -632 0 -108 -4 -193 -9 -193 -13 0
-31 57 -31 100 0 41 -76 191 -112 223 -21 17 -64 22 -84 9 -6 -4 -26 -35 -44
-70 -18 -35 -37 -61 -43 -59 -5 1 -37 48 -71 103 -88 143 -91 147 -105 131 -8
-11 0 -32 40 -98 104 -170 119 -199 119 -220 0 -9 6 -22 14 -29 13 -10 13 -7
4 17 -9 24 -5 39 28 107 39 80 59 100 75 75 7 -9 8 -5 3 14 -5 24 -3 27 20 27
33 0 53 -22 105 -120 33 -62 42 -89 38 -113 -3 -24 5 -52 35 -109 22 -43 44
-81 50 -84 7 -4 7 0 0 12 -5 11 -12 107 -16 214 -10 273 10 437 67 550 12 25
24 47 27 50 14 14 80 100 103 135 22 32 27 51 27 102 l0 63 138 2 c185 2 177
1 195 17 22 18 21 37 -3 61 -22 22 -54 23 -262 11z m-693 -851 c26 -45 45 -83
42 -86 -3 -3 -14 9 -23 28 -10 18 -23 41 -29 50 -30 50 -54 99 -46 94 5 -3 30
-42 56 -86z"/>
<path d="M6140 3668 c-168 -21 -398 -181 -497 -345 -81 -133 -121 -261 -130
-411 l-6 -104 -72 -78 c-209 -228 -220 -489 -21 -516 80 -11 159 19 228 88 32
32 61 58 64 58 22 0 73 -56 84 -92 6 -24 25 -72 41 -107 16 -35 29 -70 29 -78
0 -8 -19 -39 -42 -70 -24 -31 -52 -74 -63 -96 -15 -29 -36 -48 -70 -67 l-50
-27 -20 35 c-35 61 -87 95 -153 99 -77 5 -128 -23 -161 -91 -22 -45 -23 -53
-12 -94 20 -74 40 -108 97 -164 45 -43 54 -58 54 -87 0 -67 81 -141 156 -141
50 0 84 24 119 84 14 23 36 53 50 66 13 12 31 46 39 75 9 28 25 60 36 70 22
20 26 52 9 89 -10 22 -7 33 30 95 64 105 62 105 131 34 33 -33 74 -67 93 -76
29 -14 33 -20 29 -50 -5 -41 10 -54 62 -59 53 -4 55 -20 5 -36 -46 -14 -57
-23 -93 -77 -37 -54 -36 -113 3 -151 70 -68 101 -94 115 -94 42 0 205 165 254
257 37 69 53 163 28 163 -7 0 -33 15 -57 34 -24 18 -53 36 -65 40 -12 4 -28
23 -37 46 -14 37 -18 40 -53 40 -21 0 -46 -7 -56 -17 -18 -16 -21 -16 -54 2
-38 21 -144 121 -144 137 0 9 104 135 123 149 5 3 46 9 92 13 46 3 90 8 97 11
8 3 41 -12 74 -35 39 -26 76 -42 106 -46 198 -27 286 118 210 347 l-28 84 39
120 c37 110 40 131 45 255 4 142 -2 189 -43 316 -66 204 -182 337 -334 384
-64 20 -200 29 -281 18z m101 -18 c10 -6 19 -17 19 -25 0 -8 5 -15 10 -15 6 0
10 7 10 15 0 8 10 16 23 16 91 6 167 -23 242 -92 23 -21 46 -39 51 -39 18 -1
80 -91 108 -157 60 -141 92 -340 75 -458 -18 -124 -68 -285 -89 -285 -4 0 -18
21 -32 48 -18 33 -23 53 -18 67 15 36 10 51 -6 16 -14 -33 -15 -33 -34 -16
-19 18 -22 18 -56 2 -37 -18 -53 -43 -38 -62 5 -7 22 -30 37 -53 l29 -41 -36
-68 c-20 -37 -50 -84 -66 -103 l-29 -35 -32 33 c-21 23 -29 39 -26 54 3 11 -1
31 -10 45 -21 31 -13 84 27 186 43 110 36 146 -22 122 -14 -5 -18 -2 -18 13 0
30 -18 37 -41 16 -18 -16 -20 -16 -32 0 -25 34 -71 -13 -87 -89 -5 -25 -10
-29 -40 -30 -50 -2 -96 -29 -108 -64 -15 -41 2 -54 52 -40 78 22 73 -34 -8
-86 -59 -37 -87 -84 -67 -109 11 -13 19 -13 62 0 65 20 92 16 94 -13 2 -31 9
-36 57 -42 36 -5 46 -12 65 -46 12 -22 23 -45 23 -52 0 -13 -44 -28 -107 -37
-36 -5 -43 -4 -43 11 0 24 -40 63 -65 63 -12 0 -34 -9 -47 -20 -14 -10 -28
-16 -32 -13 -3 3 -6 -1 -6 -10 0 -10 -4 -17 -10 -17 -5 0 -10 8 -10 18 0 9 -5
24 -11 32 -8 11 -9 7 -5 -17 6 -38 4 -38 -55 -18 -117 41 -212 104 -207 138 2
16 14 24 48 32 30 7 48 18 55 33 5 12 18 22 27 22 21 0 88 -35 98 -50 5 -8 12
-6 24 5 22 22 11 63 -25 95 -34 30 -61 90 -49 110 7 11 15 11 50 -5 50 -23 65
-12 56 38 -8 41 -46 71 -91 72 -29 0 -31 3 -42 59 -6 33 -16 70 -22 83 -12 26
-43 30 -61 8 -11 -14 -15 -14 -32 2 -19 17 -20 17 -37 -5 -12 -17 -19 -20 -28
-11 -19 19 -43 3 -43 -28 0 -37 48 -206 49 -173 1 14 -8 56 -19 95 -11 38 -17
78 -14 88 5 17 7 17 23 3 9 -9 23 -38 30 -66 7 -27 17 -50 23 -50 6 0 7 7 3
18 -14 31 -18 132 -6 132 11 0 41 -51 41 -72 1 -7 7 -26 14 -43 13 -28 14 -24
8 44 -5 68 -4 73 14 69 21 -4 40 -52 52 -132 5 -28 12 -50 18 -49 5 1 21 4 36
8 21 5 33 1 52 -19 31 -30 35 -66 8 -66 -10 0 -22 4 -28 9 -9 9 -37 14 -61 12
-32 -3 -7 -82 48 -152 47 -60 37 -74 -29 -40 -20 10 -62 22 -92 26 -68 9 -98
27 -116 72 -14 33 -16 34 -37 20 -17 -11 -22 -25 -22 -57 0 -44 -14 -61 -32
-38 -19 24 -63 146 -78 218 -58 278 53 600 268 776 27 21 55 45 63 52 25 23
178 91 239 105 75 18 101 20 126 7z m39 -832 c0 -13 -7 -45 -15 -72 -19 -64
-18 -93 1 -41 30 78 54 125 64 125 21 0 21 -28 -1 -89 -22 -65 -21 -96 1 -39
18 46 58 98 76 98 21 0 18 -19 -17 -105 -17 -42 -35 -105 -40 -138 -7 -44 -17
-69 -35 -87 -22 -23 -32 -25 -112 -26 -48 0 -100 -6 -115 -12 -40 -17 -49 -15
-45 10 2 12 26 40 54 62 69 56 90 85 77 105 -10 15 -46 20 -87 10 -29 -6 -30
15 -1 50 30 34 59 39 93 15 20 -14 22 -14 22 4 0 11 7 39 15 63 28 79 65 117
65 67z m-746 -150 c23 -78 52 -157 67 -182 24 -40 24 -39 -12 -76 -63 -62
-151 -89 -180 -53 -36 43 4 193 76 288 29 37 43 43 49 23z m170 -120 c6 -13
35 -34 63 -48 53 -25 66 -43 38 -54 -27 -10 -73 6 -104 36 -37 36 -50 76 -30
89 15 9 18 7 33 -23z m910 -37 c16 -29 17 -35 5 -59 -17 -32 -87 -110 -111
-123 -37 -20 -65 22 -35 53 13 14 62 93 86 141 18 33 30 31 55 -12z m-244 -44
c0 -7 -16 -28 -35 -47 -29 -28 -42 -34 -82 -34 -37 -1 -48 3 -51 17 -3 13 3
17 25 17 34 0 113 35 113 50 0 5 7 10 15 10 8 0 15 -6 15 -13z m284 -43 c3 -9
6 -36 6 -60 0 -78 -69 -120 -129 -77 l-24 16 51 47 c29 26 52 51 52 54 0 9 23
35 31 36 4 0 10 -7 13 -16z m-679 -200 c15 -6 14 -8 -1 -25 -16 -18 -18 -18
-30 -1 -23 30 -10 41 31 26z m-427 -311 c14 -10 39 -45 55 -77 16 -31 34 -59
40 -61 7 -2 25 -6 41 -10 42 -9 93 -64 101 -109 5 -27 2 -49 -10 -77 -28 -61
-43 -64 -90 -16 -22 23 -59 57 -82 75 -42 33 -66 79 -78 153 -10 67 -73 119
-142 119 -35 0 -20 15 27 27 44 12 104 1 138 -24z m777 -13 c31 -34 1 -87 -87
-152 -47 -36 -75 -36 -88 -2 -13 33 -2 53 16 30 9 -13 20 -16 42 -11 28 6 92
59 92 75 0 5 3 15 6 23 4 12 -2 15 -27 14 -38 -2 -50 19 -17 32 34 14 43 13
63 -9z m-562 -82 c44 -30 87 -75 87 -91 0 -15 -28 -57 -38 -57 -4 0 -16 15
-26 34 -24 45 -70 78 -112 79 -39 1 -42 9 -14 37 26 26 64 25 103 -2z m656
-15 c42 -35 43 -38 37 -81 -10 -71 -71 -176 -140 -239 -92 -83 -125 -91 -181
-42 -31 28 -35 36 -35 81 0 46 4 54 44 94 42 43 65 51 128 46 11 -1 15 3 12
13 -4 9 0 15 9 15 9 0 18 4 21 8 3 5 -8 6 -25 4 -17 -3 -29 0 -29 7 0 6 9 11
19 11 11 0 23 5 27 11 5 9 -1 10 -20 5 -14 -3 -26 -4 -26 -2 0 3 18 24 40 47
22 23 40 46 40 51 0 19 40 5 79 -29z"/>
<path d="M6260 3580 c0 -22 -38 -122 -49 -130 -15 -10 -31 -49 -22 -54 11 -7
23 7 50 62 21 42 40 142 27 142 -3 0 -6 -9 -6 -20z"/>
<path d="M5860 3415 c-15 -18 -9 -19 24 -4 30 14 86 -4 86 -27 0 -8 7 -14 15
-14 21 0 19 6 -12 35 -32 29 -93 34 -113 10z"/>
<path d="M6223 3333 c-26 -10 -12 -19 22 -15 29 4 40 -1 65 -28 16 -18 30 -26
30 -19 -1 43 -72 81 -117 62z"/>
<path d="M6651 3324 c0 -11 3 -14 6 -6 3 7 2 16 -1 19 -3 4 -6 -2 -5 -13z"/>
<path d="M5852 3302 c-29 -31 -53 -103 -51 -155 1 -24 4 -17 14 28 12 58 42
125 58 125 10 0 10 -2 -14 -54 -11 -26 -26 -80 -33 -119 -12 -65 -14 -70 -24
-47 -7 17 -11 19 -11 8 -1 -9 -16 -28 -33 -42 -37 -29 -31 -35 8 -10 21 14 31
15 63 5 21 -6 44 -18 51 -26 22 -26 37 -17 60 38 28 64 38 208 18 247 -21 38
-71 39 -106 2z"/>
<path d="M6666 3265 c4 -16 10 -100 14 -185 l8 -155 -2 165 c-2 111 -6 172
-15 185 -11 18 -12 17 -5 -10z"/>
<path d="M6200 3257 c-14 -6 -37 -35 -51 -64 -26 -51 -56 -200 -46 -226 3 -8
27 -17 57 -20 29 -4 60 -13 70 -22 21 -19 31 -19 24 -1 -3 8 3 43 14 78 42
136 36 234 -15 257 -29 13 -23 13 -53 -2z m10 -22 c0 -3 -12 -29 -27 -58 -20
-39 -28 -73 -32 -132 -5 -62 -9 -80 -21 -80 -31 0 -1 172 42 243 17 28 38 43
38 27z"/>
<path d="M5930 2951 c0 -16 52 -51 75 -51 23 0 80 39 58 40 -6 0 -15 -4 -18
-10 -11 -17 -60 -11 -83 10 -23 22 -32 25 -32 11z"/>
<path d="M6652 2800 c0 -14 2 -19 5 -12 2 6 2 18 0 25 -3 6 -5 1 -5 -13z"/>
<path d="M8691 3592 c-1 -52 19 -94 91 -187 109 -143 119 -185 125 -537 l5
-278 -25 0 c-26 0 -37 -16 -37 -56 0 -20 5 -24 30 -24 l30 0 0 -323 c0 -178
-3 -327 -7 -330 -3 -4 -13 -1 -22 7 -28 25 -121 46 -257 58 -113 10 -148 9
-247 -4 -65 -10 -134 -26 -158 -37 -33 -16 -45 -18 -51 -9 -4 7 -8 79 -8 161
l0 147 33 1 c29 1 28 2 -12 10 -24 5 -46 11 -49 13 -2 3 12 28 33 56 20 27 34
50 32 50 -3 0 -22 -23 -42 -50 -35 -48 -63 -61 -72 -34 -5 15 106 154 123 154
16 0 19 -31 4 -48 -5 -7 0 -3 12 8 17 15 20 22 10 32 -22 22 -13 30 26 24 l37
-6 -34 15 c-19 8 -40 23 -48 33 -13 15 -13 15 -3 -5 6 -13 7 -23 2 -23 -4 0
-38 -38 -75 -85 -37 -47 -71 -85 -76 -85 -5 0 -14 15 -20 33 -7 19 -25 55 -41
81 -28 44 -29 49 -18 90 14 51 -1 98 -36 119 -61 35 -87 54 -91 68 -12 37 -89
-11 -100 -62 -8 -37 23 -92 98 -173 54 -57 57 -59 97 -53 l41 5 30 -59 c29
-59 74 -99 112 -99 15 0 17 -14 17 -163 0 -181 3 -192 64 -221 20 -9 66 -22
103 -29 68 -12 68 -12 71 -47 2 -19 1 -63 -3 -97 -6 -56 -9 -62 -35 -72 -35
-12 -136 -110 -172 -166 -58 -92 -44 -116 65 -113 65 2 66 2 17 5 -85 5 -100
10 -100 36 0 30 47 103 96 147 34 31 36 32 21 8 -34 -55 -11 -75 71 -63 57 8
96 28 117 57 13 20 17 21 25 8 8 -13 10 -13 10 1 0 9 -11 32 -24 52 -32 47
-39 84 -31 162 l7 66 92 -3 91 -3 5 -85 c5 -76 3 -89 -17 -126 -16 -29 -23
-57 -23 -96 0 -80 26 -113 125 -162 89 -43 150 -55 178 -34 16 12 17 19 7 63
-23 104 -97 221 -158 253 -41 21 -50 49 -51 148 l-1 51 55 7 c67 8 135 38 155
68 12 19 16 82 20 343 l5 320 65 6 c115 10 217 78 255 173 31 77 40 90 65 96
13 3 33 20 43 38 l19 32 -39 0 c-44 0 -111 28 -134 56 -8 10 -35 50 -59 87
-40 63 -42 69 -27 85 16 15 19 15 44 -4 16 -12 38 -38 51 -60 17 -29 21 -33
17 -14 -4 14 0 46 8 70 8 25 18 63 21 85 10 62 27 96 45 93 12 -2 17 -19 22
-68 3 -36 6 -56 7 -45 4 38 41 105 58 105 15 0 16 -9 11 -72 l-6 -73 27 42
c28 45 57 56 65 26 4 -17 5 -17 6 0 1 23 -27 33 -50 19 -27 -17 -29 -16 -29
28 0 35 -3 40 -23 40 -16 0 -28 -9 -37 -27 l-13 -28 -8 31 c-5 18 -15 34 -23
37 -25 10 -44 -25 -66 -120 -12 -51 -25 -95 -29 -98 -4 -2 -21 9 -36 25 -34
35 -60 38 -75 9 -9 -16 -7 -27 9 -52 78 -125 82 -134 70 -161 -10 -21 -9 -29
4 -44 22 -24 21 -44 -3 -93 -46 -89 -124 -139 -218 -139 l-40 0 -5 258 c-7
357 -21 414 -133 563 -62 82 -84 124 -94 184 l-7 40 -2 -43z m553 -727 c11 -8
41 -18 68 -21 53 -7 52 -7 38 -35 -13 -23 -56 -25 -105 -4 -37 15 -51 35 -41
60 7 19 16 18 40 0z m-1394 -250 c0 -8 -11 -22 -25 -31 -14 -9 -25 -24 -25
-34 0 -28 -11 -51 -21 -44 -16 9 -10 79 9 102 19 25 62 30 62 7z m54 -34 c4
-5 -7 -23 -23 -39 -16 -16 -33 -45 -36 -66 -6 -28 -10 -34 -20 -26 -32 26 -24
98 13 126 20 16 58 18 66 5z m57 -53 c12 -22 8 -105 -7 -142 -5 -14 -4 -17 4
-12 7 4 12 3 12 -2 0 -16 -28 -22 -54 -12 -36 13 -56 49 -56 98 0 72 73 123
101 70z m823 -646 c37 -11 75 -27 83 -35 14 -14 12 -17 -13 -29 -16 -8 -56
-20 -88 -27 -53 -12 -61 -11 -71 3 -18 24 -61 21 -68 -5 -5 -18 -11 -21 -38
-15 -17 3 -56 6 -85 6 -41 0 -54 4 -54 15 0 10 -10 15 -30 15 -21 0 -30 -5
-30 -16 0 -12 -6 -15 -22 -11 -13 3 -48 10 -79 17 -115 23 -115 57 -1 84 106
24 109 25 272 21 117 -2 172 -8 224 -23z m-149 -412 c9 -17 33 -42 54 -56 42
-27 138 -57 146 -44 2 4 -1 30 -9 59 -7 28 -10 51 -6 51 23 0 94 -179 83 -207
-9 -23 -100 -16 -147 12 -72 42 -146 136 -146 186 0 37 6 36 25 -1z"/>
<path d="M8365 3168 c-11 -6 -24 -17 -28 -25 -4 -7 -18 -13 -30 -13 -20 -1
-21 -2 -4 -14 9 -7 17 -22 18 -32 0 -14 3 -12 8 7 12 37 30 69 41 69 5 0 3
-19 -5 -41 -18 -49 -20 -163 -4 -209 9 -26 9 -34 -2 -41 -8 -5 -15 -4 -18 2
-3 9 -51 -52 -51 -65 0 -15 16 -4 25 16 21 48 101 49 131 2 14 -20 15 -29 5
-51 -11 -24 -11 -25 4 -13 12 10 15 22 10 44 -10 48 -11 329 -1 344 6 8 2 12
-13 12 -11 0 -21 4 -21 8 0 12 -43 12 -65 0z"/>
<path d="M8597 3174 c-4 -4 -3 -12 1 -18 4 -6 6 -63 6 -126 l-2 -115 7 106 c4
67 11 112 20 122 22 27 30 20 20 -15 -5 -18 -9 -88 -7 -155 l3 -123 28 0 c15
0 40 -8 55 -17 23 -15 25 -16 14 -1 -10 13 -10 26 -1 61 6 25 9 86 8 136 -2
50 -1 91 4 91 4 0 7 7 7 16 0 8 -5 12 -10 9 -6 -3 -23 3 -39 14 -31 22 -81 28
-81 10 0 -8 -4 -9 -13 0 -8 6 -17 8 -20 5z"/>
<path d="M9481 3114 c0 -11 3 -14 6 -6 3 7 2 16 -1 19 -3 4 -6 -2 -5 -13z"/>
<path d="M2871 3010 c-26 -65 -24 -76 8 -65 18 5 21 14 21 66 0 32 -1 59 -3
59 -1 0 -13 -27 -26 -60z"/>
<path d="M8313 3010 c0 -25 2 -35 4 -22 2 12 2 32 0 45 -2 12 -4 2 -4 -23z"/>
<path d="M3186 3033 c-8 -9 40 -43 60 -43 16 0 16 1 0 19 -18 20 -51 33 -60
24z"/>
<path d="M3419 3011 c-13 -11 -21 -22 -17 -26 8 -8 68 22 68 35 0 16 -26 11
-51 -9z"/>
<path d="M9276 2990 c4 -8 11 -30 15 -50 7 -35 7 -35 8 -4 0 16 -6 39 -15 50
-8 10 -12 12 -8 4z"/>
<path d="M3197 2969 c10 -12 7 -27 -17 -78 -17 -35 -30 -65 -30 -67 0 -2 11
-4 25 -4 32 0 31 -10 -2 -68 -14 -26 -33 -60 -41 -77 -24 -45 -25 -14 -2 46
27 72 26 76 -12 71 -30 -5 -31 -4 -25 27 4 18 18 59 31 92 14 36 19 59 12 59
-20 -1 -53 -35 -75 -78 -15 -29 -28 -42 -46 -44 -32 -4 -34 -21 -3 -28 20 -5
24 -14 29 -60 11 -109 64 -167 141 -157 22 3 48 13 59 22 29 27 59 97 59 141
0 63 10 85 34 82 18 -3 22 -12 27 -68 9 -109 64 -180 139 -180 66 0 105 47
124 147 10 58 15 68 34 71 34 5 27 32 -7 32 -22 0 -31 6 -37 23 -10 31 -44 79
-55 75 -5 -2 -20 -26 -34 -55 l-24 -52 22 -3 c27 -4 26 -9 -21 -118 -40 -93
-55 -90 -22 4 26 76 26 77 -10 70 -26 -6 -30 -4 -30 17 0 31 41 149 51 149 5
0 9 5 9 10 0 16 -52 0 -78 -24 -13 -11 -30 -33 -38 -48 -12 -23 -21 -28 -52
-28 -32 0 -39 5 -57 37 -11 20 -36 46 -55 57 -24 14 -31 16 -23 5z"/>
<path d="M9436 2937 c-5 -20 -17 -48 -28 -62 -11 -14 -14 -25 -8 -25 15 0 52
86 47 108 -2 10 -7 1 -11 -21z"/>
<path d="M2800 2875 c0 -14 5 -25 10 -25 6 0 10 11 10 25 0 14 -4 25 -10 25
-5 0 -10 -11 -10 -25z"/>
<path d="M8611 2870 c-1 -20 -6 -41 -13 -48 -6 -6 -9 -14 -6 -17 3 -3 12 5 21
19 12 17 14 31 7 52 l-8 29 -1 -35z"/>
<path d="M2740 2865 c0 -14 4 -25 9 -25 4 0 6 11 3 25 -2 14 -6 25 -8 25 -2 0
-4 -11 -4 -25z"/>
<path d="M2870 2881 c0 -5 -3 -18 -6 -28 -5 -16 -4 -16 10 1 18 23 20 36 6 36
-5 0 -10 -4 -10 -9z"/>
<path d="M7957 2834 c14 -25 27 -43 29 -41 6 5 -39 87 -48 87 -4 0 5 -20 19
-46z"/>
<path d="M8520 2825 c-8 -9 -9 -15 -2 -15 6 0 14 5 18 12 5 7 11 5 21 -7 11
-16 13 -16 13 -3 0 9 -7 19 -16 22 -21 8 -20 8 -34 -9z"/>
<path d="M8752 2785 c0 -16 2 -22 5 -12 2 9 2 23 0 30 -3 6 -5 -1 -5 -18z"/>
<path d="M8000 2760 c6 -11 13 -20 16 -20 2 0 0 9 -6 20 -6 11 -13 20 -16 20
-2 0 0 -9 6 -20z"/>
<path d="M8730 2739 c0 -5 5 -7 10 -4 6 3 10 8 10 11 0 2 -4 4 -10 4 -5 0 -10
-5 -10 -11z"/>
<path d="M7891 2726 c-25 -30 35 -105 73 -90 30 12 10 74 -31 93 -30 14 -28
14 -42 -3z m57 -18 c30 -30 -1 -74 -33 -48 -22 18 -19 60 3 60 10 0 23 -5 30
-12z"/>
<path d="M7936 2677 c3 -10 9 -15 12 -12 3 3 0 11 -7 18 -10 9 -11 8 -5 -6z"/>
<path d="M8065 2641 c8 -17 19 -33 25 -36 5 -3 1 10 -11 29 -25 43 -36 48 -14
7z"/>
<path d="M8480 2640 c0 -11 6 -20 13 -20 7 0 18 -14 24 -31 10 -25 16 -30 40
-27 17 2 32 12 39 26 6 13 17 29 22 34 8 8 4 15 -15 25 -32 16 -79 17 -87 1
-5 -10 -7 -10 -12 0 -9 19 -24 14 -24 -8z m100 -50 c-12 -23 -21 -25 -38 -8
-20 20 -14 28 18 28 28 0 30 -2 20 -20z"/>
<path d="M3285 2610 c10 -11 28 -20 39 -20 25 1 63 27 53 37 -4 4 -13 1 -19
-5 -15 -15 -55 -16 -63 -2 -3 6 -11 10 -17 10 -6 0 -3 -9 7 -20z"/>
<path d="M3320 2450 l-5 -85 -157 -3 -158 -3 0 -179 0 -180 343 2 342 3 3 177
2 178 -177 2 -178 3 -5 85 -6 85 -4 -85z m178 -318 c97 -1 162 -6 162 -12 0
-6 -115 -10 -310 -10 -200 0 -310 4 -310 10 0 6 52 10 135 10 l135 0 0 103 c0
57 3 107 8 111 4 4 9 -41 12 -101 l5 -108 163 -3z"/>
<path d="M8180 2491 c0 -6 4 -13 10 -16 6 -3 7 1 4 9 -7 18 -14 21 -14 7z"/>
<path d="M8156 2477 c3 -10 9 -15 12 -12 3 3 0 11 -7 18 -10 9 -11 8 -5 -6z"/>
<path d="M8425 2376 c28 -8 59 -17 70 -20 11 -4 8 -1 -6 8 -15 8 -46 18 -70
20 l-44 5 50 -13z"/>
<path d="M8512 2320 c0 -14 2 -19 5 -12 2 6 2 18 0 25 -3 6 -5 1 -5 -13z"/>
<path d="M8451 2214 l-44 -56 -51 6 c-28 4 -67 9 -86 11 -31 5 -30 4 10 -10
47 -15 140 -20 140 -7 0 4 10 18 23 32 25 27 62 80 56 80 -3 0 -24 -25 -48
-56z"/>
<path d="M6560 1902 c0 -5 11 -14 25 -20 14 -6 34 -26 45 -44 17 -28 20 -30
20 -12 0 13 -15 35 -35 53 -35 31 -55 39 -55 23z"/>
<path d="M6551 1829 c16 -17 29 -37 29 -45 0 -8 5 -14 11 -14 17 0 0 43 -27
68 -37 33 -46 27 -13 -9z"/>
<path d="M8501 1424 c-2 -49 -49 -88 -145 -120 -39 -13 -39 -13 -8 -10 18 1
35 -1 38 -6 9 -15 51 -8 77 13 30 23 51 81 44 124 l-4 30 -2 -31z m-21 -93 c0
-14 -50 -43 -68 -39 -13 3 -8 10 18 26 38 24 50 27 50 13z"/>
</g>
</svg>
